<svg xmlns="http://www.w3.org/2000/svg">
  <defs>
    <!-- Mobile menu icons -->
    <symbol
      id="icon-close"
      viewBox="0 0 40 40"
    >
      <path
        d="M29.667 12.88 27.787 11l-7.454 7.453L12.88 11 11 12.88l7.453 7.453L11 27.787l1.88 1.88 7.453-7.454 7.454 7.454 1.88-1.88-7.454-7.454 7.454-7.453Z"
        fill="#212121"
      />
    </symbol>
    <symbol
      id="icon-menu"
      viewBox="0 0 40 40"
    >
      <path
        fill-rule="evenodd"
        clip-rule="evenodd"
        d="M8 14.667V12h24v2.667H8Zm0 6.666h24v-2.666H8v2.666ZM8 28h24v-2.667H8V28Z"
      />
    </symbol>
    <!-- Contacts icons -->
    <symbol
      id="icon-mail"
      viewBox="0 0 14 10"
    >
      <path
        d="M12.688 0H1.313C.589 0 0 .56 0 1.25v7.5C0 9.44.589 10 1.313 10h11.375C13.41 10 14 9.44 14 8.75v-7.5C14 .56 13.411 0 12.687 0Zm0 .833c.059 0 .115.012.167.033L7 5.699 1.145.866a.454.454 0 0 1 .167-.033h11.375Zm0 8.334H1.313a.428.428 0 0 1-.438-.417V1.746l5.838 4.819a.45.45 0 0 0 .574 0l5.838-4.819V8.75c0 .23-.196.417-.438.417Z"
        fill="#757575"
      />
    </symbol>
    <symbol
      id="icon-phone"
      viewBox="0 0 10 14"
    >
      <path
        d="M8.5 0h-7C.673 0 0 .589 0 1.313v11.374C0 13.412.673 14 1.5 14h7c.827 0 1.5-.589 1.5-1.313V1.313C10 .589 9.327 0 8.5 0Zm-7 .875h7c.276 0 .5.196.5.438V10.5H1V1.312c0-.24.224-.437.5-.437Zm7 12.25h-7c-.276 0-.5-.196-.5-.438v-1.312h8v1.313c0 .24-.224.437-.5.437Z"
        fill="#757575"
      />
      <path
        d="M2.354 11.94a.4.4 0 0 1 0 .62.552.552 0 0 1-.708 0 .4.4 0 0 1 0-.62.552.552 0 0 1 .708 0Z"
        fill="#757575"
      />
    </symbol>
    <!-- Socials icons -->
    <symbol
      id="icon-instagram"
      viewBox="0 0 20 20"
    >
      <g
        clip-path="url(#clip0_1_3690)"
        fill="#fff"
      >
        <path
          d="M19.98 5.88c-.046-1.063-.218-1.793-.464-2.426a4.88 4.88 0 0 0-1.157-1.774 4.922 4.922 0 0 0-1.77-1.153C15.952.281 15.226.11 14.163.063 13.093.012 12.753 0 10.037 0 7.322 0 6.982.012 5.915.059 4.853.105 4.122.277 3.49.523A4.88 4.88 0 0 0 1.715 1.68 4.924 4.924 0 0 0 .563 3.45C.316 4.087.145 4.813.098 5.876c-.051 1.07-.063 1.41-.063 4.126 0 2.715.012 3.055.059 4.122.047 1.063.219 1.793.465 2.426a4.932 4.932 0 0 0 1.156 1.774c.5.508 1.106.902 1.77 1.152.637.247 1.364.419 2.426.465 1.067.047 1.407.059 4.122.059 2.716 0 3.056-.012 4.122-.059 1.063-.046 1.793-.218 2.426-.464a5.116 5.116 0 0 0 2.927-2.927c.246-.637.418-1.364.465-2.426.047-1.067.058-1.407.058-4.122s-.004-3.055-.05-4.122Zm-1.8 8.166c-.044.977-.208 1.504-.344 1.856a3.318 3.318 0 0 1-1.9 1.898c-.35.137-.882.301-1.855.344-1.055.047-1.371.059-4.04.059-2.668 0-2.989-.012-4.04-.059-.977-.043-1.504-.207-1.856-.344a3.077 3.077 0 0 1-1.148-.746 3.11 3.11 0 0 1-.747-1.148c-.136-.352-.3-.883-.343-1.856-.047-1.055-.059-1.372-.059-4.04 0-2.669.012-2.99.059-4.04.043-.977.207-1.504.343-1.856A3.04 3.04 0 0 1 3 2.965a3.105 3.105 0 0 1 1.15-.746c.35-.137.882-.3 1.855-.344 1.055-.046 1.372-.058 4.04-.058 2.672 0 2.989.012 4.04.058.977.043 1.504.207 1.856.344.433.16.828.414 1.148.746.332.325.586.715.747 1.15.136.35.3.882.343 1.855.047 1.055.059 1.371.059 4.04 0 2.668-.012 2.98-.059 4.036Z"
        />
        <path
          d="M10.037 4.864A5.139 5.139 0 0 0 4.9 10.002a5.139 5.139 0 1 0 5.138-5.138Zm0 8.47a3.333 3.333 0 1 1 .001-6.666 3.333 3.333 0 0 1 0 6.667ZM16.578 4.661a1.2 1.2 0 1 1-2.4 0 1.2 1.2 0 0 1 2.4 0Z"
        />
      </g>
      <defs>
        <clipPath id="clip0_1_3690">
          <path
            fill="#fff"
            d="M0 0h20v20H0z"
          />
        </clipPath>
      </defs>
    </symbol>
    <symbol
      id="icon-twitter"
      viewBox="0 0 20 20"
    >
      <g clip-path="url(#clip0_1_3684)">
        <path
          d="M20 3.799a8.549 8.549 0 0 1-2.363.647 4.077 4.077 0 0 0 1.804-2.266 8.192 8.192 0 0 1-2.6.992A4.099 4.099 0 0 0 9.75 5.976c0 .325.027.638.095.935-3.409-.166-6.425-1.8-8.451-4.288A4.128 4.128 0 0 0 .83 4.694c0 1.42.732 2.679 1.821 3.407A4.05 4.05 0 0 1 .8 7.597v.045a4.119 4.119 0 0 0 3.285 4.03 4.09 4.09 0 0 1-1.075.134c-.262 0-.527-.015-.776-.07.531 1.624 2.038 2.818 3.831 2.856a8.238 8.238 0 0 1-5.084 1.75A7.67 7.67 0 0 1 0 16.284a11.543 11.543 0 0 0 6.29 1.84c7.545 0 11.67-6.25 11.67-11.668 0-.18-.006-.356-.015-.53A8.179 8.179 0 0 0 20 3.8Z"
          fill="#fff"
        />
      </g>
      <defs>
        <clipPath id="clip0_1_3684">
          <path
            fill="#fff"
            d="M0 0h20v20H0z"
          />
        </clipPath>
      </defs>
    </symbol>
    <symbol
      id="icon-facebook"
      viewBox="0 0 20 20"
    >
      <g clip-path="url(#clip0_1_3680)">
        <path
          d="M13.33 3.32h1.827V.14a23.576 23.576 0 0 0-2.66-.14C9.864 0 8.06 1.656 8.06 4.7v2.8H5.156v3.555H8.06V20h3.561v-8.944h2.788l.442-3.555h-3.23V5.05c0-1.027.277-1.73 1.709-1.73Z"
          fill="#fff"
        />
      </g>
      <defs>
        <clipPath id="clip0_1_3680">
          <path
            fill="#fff"
            d="M0 0h20v20H0z"
          />
        </clipPath>
      </defs>
    </symbol>
    <symbol
      id="icon-linkedin"
      viewBox="0 0 20 20"
    >
      <g
        clip-path="url(#clip0_1_3674)"
        fill="#fff"
      >
        <path
          d="M19.995 20H20v-7.336c0-3.588-.772-6.352-4.967-6.352-2.017 0-3.37 1.106-3.923 2.156h-.058V6.647H7.074v13.352h4.142v-6.611c0-1.741.33-3.425 2.486-3.425 2.124 0 2.156 1.987 2.156 3.536V20h4.137ZM.33 6.647h4.147V20H.33V6.647ZM2.402 0A2.402 2.402 0 0 0 0 2.402c0 1.325 1.076 2.424 2.402 2.424 1.325 0 2.401-1.098 2.401-2.424A2.403 2.403 0 0 0 2.402 0Z"
        />
      </g>
      <defs>
        <clipPath id="clip0_1_3674">
          <path
            fill="#fff"
            d="M0 0h20v20H0z"
          />
        </clipPath>
      </defs>
    </symbol>
    <!-- Footer form icon -->
    <symbol
      id="icon-send"
      viewBox="0 0 24 24"
    >
      <path
        d="M24 0L0 13.5L7.66994 16.3407L19.5 5.25002L10.5017 17.3896L10.509 17.3923L10.5 17.3896V24.0001L14.8013 18.982L20.2501 21.0001L24 0Z"
        fill="white"
      />
    </symbol>

  </defs>
</svg>
